<svg xmlns="http://www.w3.org/2000/svg" xmlns:xlink="http://www.w3.org/1999/xlink" contentStyleType="text/css" data-diagram-type="ACTIVITY" height="1277px" preserveAspectRatio="none" style="width:1311px;height:1277px;background:#FFFFFF;" version="1.1" viewBox="0 0 1311 1277" width="1311px" zoomAndPan="magnify"><?plantuml 1.2026.4?><defs/><g><g class="title" data-source-line="1"><text fill="#000000" font-family="sans-serif" font-size="14" font-weight="700" lengthAdjust="spacing" textLength="165.7168" x="572.01" y="35.1074">AN02 Participar de duelo</text></g><rect fill="none" height="23.9414" style="stroke:none;stroke-width:1;" width="1264.7368" x="20" y="57.6387"/><ellipse cx="135.7324" cy="96.5801" fill="#222222" rx="10" ry="10" style="stroke:#222222;stroke-width:1;"/><rect fill="#F1F1F1" height="35.9609" rx="12.5" ry="12.5" style="stroke:#181818;stroke-width:0.5;" width="219.4648" x="26" y="126.5801"/><text fill="#000000" font-family="sans-serif" font-size="12" lengthAdjust="spacing" textLength="199.4648" x="36" y="149.5293">Escolher convite ou entrada na arena</text><rect fill="#F1F1F1" height="35.9609" rx="12.5" ry="12.5" style="stroke:#181818;stroke-width:0.5;" width="152.0645" x="59.7002" y="621.3457"/><text fill="#000000" font-family="sans-serif" font-size="12" lengthAdjust="spacing" textLength="132.0645" x="69.7002" y="644.2949">Escrever e enviar c&#243;digo</text><line style="stroke:#000000;stroke-width:1.5;" x1="20" x2="20" y1="57.6387" y2="1256.2705"/><rect fill="#F1F1F1" height="35.9609" rx="12.5" ry="12.5" style="stroke:#181818;stroke-width:0.5;" width="192.7754" x="480.6907" y="182.541"/><text fill="#000000" font-family="sans-serif" font-size="12" lengthAdjust="spacing" textLength="172.7754" x="490.6907" y="205.4902">Autenticar e validar elegibilidade</text><polygon fill="#F1F1F1" points="532.4338,238.502,621.7229,238.502,633.7229,250.502,621.7229,262.502,532.4338,262.502,520.4338,250.502,532.4338,238.502" style="stroke:#181818;stroke-width:0.5;stroke-linejoin:miter;stroke-miterlimit:10;"/><text fill="#000000" font-family="sans-serif" font-size="11" lengthAdjust="spacing" textLength="89.2891" x="532.4338" y="255.0566">Modo de entrada?</text><text fill="#000000" font-family="sans-serif" font-size="11" lengthAdjust="spacing" textLength="34.853" x="485.5808" y="247.7412">convite</text><text fill="#000000" font-family="sans-serif" font-size="11" lengthAdjust="spacing" textLength="28.1338" x="633.7229" y="247.7412">arena</text><rect fill="#F1F1F1" height="35.9609" rx="12.5" ry="12.5" style="stroke:#181818;stroke-width:0.5;" width="200.0762" x="305.9746" y="282.502"/><text fill="#000000" font-family="sans-serif" font-size="12" lengthAdjust="spacing" textLength="180.0762" x="315.9746" y="305.4512">Criar DuelRequest com expira&#231;&#227;o</text><polygon fill="#F1F1F1" points="347.6128,424.4238,464.4126,424.4238,476.4126,436.4238,464.4126,448.4238,347.6128,448.4238,335.6128,436.4238,347.6128,424.4238" style="stroke:#181818;stroke-width:0.5;stroke-linejoin:miter;stroke-miterlimit:10;"/><text fill="#000000" font-family="sans-serif" font-size="11" lengthAdjust="spacing" textLength="116.7998" x="347.6128" y="440.9785">Aceito dentro do prazo?</text><text fill="#000000" font-family="sans-serif" font-size="11" lengthAdjust="spacing" textLength="17.1069" x="318.5059" y="433.6631">sim</text><text fill="#000000" font-family="sans-serif" font-size="11" lengthAdjust="spacing" textLength="18.353" x="476.4126" y="433.6631">n&#227;o</text><rect fill="#F1F1F1" height="35.9609" rx="12.5" ry="12.5" style="stroke:#181818;stroke-width:0.5;" width="125.3691" x="255.4648" y="458.4238"/><text fill="#000000" font-family="sans-serif" font-size="12" lengthAdjust="spacing" textLength="105.3691" x="265.4648" y="481.373">Criar duelo ACTIVE</text><rect fill="#F1F1F1" height="35.9609" rx="12.5" ry="12.5" style="stroke:#181818;stroke-width:0.5;" width="186.084" x="400.834" y="458.4238"/><text fill="#000000" font-family="sans-serif" font-size="12" lengthAdjust="spacing" textLength="166.084" x="410.834" y="481.373">Registrar rejei&#231;&#227;o ou expira&#231;&#227;o</text><ellipse cx="493.876" cy="540.3848" fill="none" rx="11" ry="11" style="stroke:#222222;stroke-width:1;"/><ellipse cx="493.876" cy="540.3848" fill="#222222" rx="6" ry="6" style="stroke:#222222;stroke-width:1;"/><rect fill="#F1F1F1" height="51.9219" rx="12.5" ry="12.5" style="stroke:#181818;stroke-width:0.5;" width="185.4102" x="655.439" y="282.502"/><text fill="#000000" font-family="sans-serif" font-size="12" lengthAdjust="spacing" textLength="165.4102" x="665.439" y="305.4512">Tentar ocupar duelo PENDING</text><text fill="#000000" font-family="sans-serif" font-size="12" lengthAdjust="spacing" textLength="150.0879" x="665.439" y="321.4121">com atualiza&#231;&#227;o condicional</text><polygon fill="#F1F1F1" points="695.5449,369.4238,800.7432,369.4238,812.7432,381.4238,800.7432,393.4238,695.5449,393.4238,683.5449,381.4238,695.5449,369.4238" style="stroke:#181818;stroke-width:0.5;stroke-linejoin:miter;stroke-miterlimit:10;"/><text fill="#000000" font-family="sans-serif" font-size="11" lengthAdjust="spacing" textLength="105.1982" x="695.5449" y="385.9785">Encontrou oponente?</text><text fill="#000000" font-family="sans-serif" font-size="11" lengthAdjust="spacing" textLength="17.1069" x="666.438" y="378.6631">sim</text><text fill="#000000" font-family="sans-serif" font-size="11" lengthAdjust="spacing" textLength="18.353" x="812.7432" y="378.6631">n&#227;o</text><rect fill="#F1F1F1" height="35.9609" rx="12.5" ry="12.5" style="stroke:#181818;stroke-width:0.5;" width="83.3691" x="626.918" y="403.4238"/><text fill="#000000" font-family="sans-serif" font-size="12" lengthAdjust="spacing" textLength="63.3691" x="636.918" y="426.373">Ativar duelo</text><rect fill="#F1F1F1" height="35.9609" rx="12.5" ry="12.5" style="stroke:#181818;stroke-width:0.5;" width="136.7012" x="759.335" y="403.4238"/><text fill="#000000" font-family="sans-serif" font-size="12" lengthAdjust="spacing" textLength="116.7012" x="769.335" y="426.373">Criar duelo PENDING</text><rect fill="#F1F1F1" height="35.9609" rx="12.5" ry="12.5" style="stroke:#181818;stroke-width:0.5;" width="194.7969" x="730.2871" y="474.3848"/><text fill="#000000" font-family="sans-serif" font-size="12" lengthAdjust="spacing" textLength="174.7969" x="740.2871" y="497.334">Aguardar oponente ou expira&#231;&#227;o</text><ellipse cx="827.6855" cy="556.3457" fill="none" rx="11" ry="11" style="stroke:#222222;stroke-width:1;"/><ellipse cx="827.6855" cy="556.3457" fill="#222222" rx="6" ry="6" style="stroke:#222222;stroke-width:1;"/><polygon fill="#F1F1F1" points="577.0784,577.3457,589.0784,589.3457,577.0784,601.3457,565.0784,589.3457,577.0784,577.3457" style="stroke:#181818;stroke-width:0.5;stroke-linejoin:miter;stroke-miterlimit:10;"/><rect fill="#F1F1F1" height="35.9609" rx="12.5" ry="12.5" style="stroke:#181818;stroke-width:0.5;" width="208.7832" x="472.6868" y="677.3066"/><text fill="#000000" font-family="sans-serif" font-size="12" lengthAdjust="spacing" textLength="188.7832" x="482.6868" y="700.2559">Validar participante, estado e prazo</text><rect fill="#F1F1F1" height="35.9609" rx="12.5" ry="12.5" style="stroke:#181818;stroke-width:0.5;" width="240.1016" x="457.0276" y="733.2676"/><text fill="#000000" font-family="sans-serif" font-size="12" lengthAdjust="spacing" textLength="220.1016" x="467.0276" y="756.2168">Executar testes e gravar DuelSubmission</text><rect fill="#F1F1F1" height="51.9219" rx="12.5" ry="12.5" style="stroke:#181818;stroke-width:0.5;" width="209.4512" x="472.3528" y="789.2285"/><text fill="#000000" font-family="sans-serif" font-size="12" lengthAdjust="spacing" textLength="189.4512" x="482.3528" y="812.1777">Resolver quando houver resultados</text><text fill="#000000" font-family="sans-serif" font-size="12" lengthAdjust="spacing" textLength="109.4063" x="482.3528" y="828.1387">ou ao atingir o prazo</text><rect fill="#F1F1F1" height="35.9609" rx="12.5" ry="12.5" style="stroke:#181818;stroke-width:0.5;" width="193.3848" x="480.386" y="910.4658"/><text fill="#000000" font-family="sans-serif" font-size="12" lengthAdjust="spacing" textLength="173.3848" x="490.386" y="933.415">Mudar para REVIEW_PENDING</text><rect fill="#F1F1F1" height="35.9609" rx="12.5" ry="12.5" style="stroke:#181818;stroke-width:0.5;" width="169.4141" x="492.3713" y="1022.3877"/><text fill="#000000" font-family="sans-serif" font-size="12" lengthAdjust="spacing" textLength="149.4141" x="502.3713" y="1045.3369">Registrar avalia&#231;&#227;o humana</text><polygon fill="#F1F1F1" points="536.1104,861.1504,618.0464,861.1504,630.0464,873.1504,618.0464,885.1504,536.1104,885.1504,524.1104,873.1504,536.1104,861.1504" style="stroke:#181818;stroke-width:0.5;stroke-linejoin:miter;stroke-miterlimit:10;"/><text fill="#000000" font-family="sans-serif" font-size="11" lengthAdjust="spacing" textLength="17.1069" x="581.0784" y="897.0205">sim</text><text fill="#000000" font-family="sans-serif" font-size="11" lengthAdjust="spacing" textLength="81.936" x="536.1104" y="877.7051">Empate t&#233;cnico?</text><polygon fill="#F1F1F1" points="577.0784,1078.3486,589.0784,1090.3486,577.0784,1102.3486,565.0784,1090.3486,577.0784,1078.3486" style="stroke:#181818;stroke-width:0.5;stroke-linejoin:miter;stroke-miterlimit:10;"/><rect fill="#F1F1F1" height="35.9609" rx="12.5" ry="12.5" style="stroke:#181818;stroke-width:0.5;" width="223.4375" x="465.3596" y="1122.3486"/><text fill="#000000" font-family="sans-serif" font-size="12" lengthAdjust="spacing" textLength="203.4375" x="475.3596" y="1145.2979">Fechar duelo com resultado persistido</text><rect fill="#F1F1F1" height="35.9609" rx="12.5" ry="12.5" style="stroke:#181818;stroke-width:0.5;" width="258.1426" x="448.0071" y="1178.3096"/><text fill="#000000" font-family="sans-serif" font-size="12" lengthAdjust="spacing" textLength="238.1426" x="458.0071" y="1201.2588">Conceder 50 XP ao vencedor uma &#250;nica vez</text><ellipse cx="577.0784" cy="1245.2705" fill="none" rx="11" ry="11" style="stroke:#222222;stroke-width:1;"/><ellipse cx="577.0784" cy="1245.2705" fill="#222222" rx="6" ry="6" style="stroke:#222222;stroke-width:1;"/><line style="stroke:#000000;stroke-width:1.5;" x1="249.4648" x2="249.4648" y1="57.6387" y2="1256.2705"/><rect fill="#F1F1F1" height="35.9609" rx="12.5" ry="12.5" style="stroke:#181818;stroke-width:0.5;" width="120.0605" x="935.084" y="353.4629"/><text fill="#000000" font-family="sans-serif" font-size="12" lengthAdjust="spacing" textLength="100.0605" x="945.084" y="376.4121">Responder convite</text><line style="stroke:#000000;stroke-width:1.5;" x1="929.084" x2="929.084" y1="57.6387" y2="1256.2705"/><rect fill="#F1F1F1" height="35.9609" rx="12.5" ry="12.5" style="stroke:#181818;stroke-width:0.5;" width="214.0918" x="1065.1445" y="966.4268"/><text fill="#000000" font-family="sans-serif" font-size="12" lengthAdjust="spacing" textLength="194.0918" x="1075.1445" y="989.376">Comparar solu&#231;&#245;es e enviar parecer</text><line style="stroke:#000000;stroke-width:1.5;" x1="1059.1445" x2="1059.1445" y1="57.6387" y2="1256.2705"/><line style="stroke:#000000;stroke-width:1.5;" x1="1283.2363" x2="1283.2363" y1="57.6387" y2="1256.2705"/><line style="stroke:#181818;stroke-width:1;" x1="135.7324" x2="135.7324" y1="106.5801" y2="126.5801"/><polygon fill="#181818" points="131.7324,116.5801,135.7324,126.5801,139.7324,116.5801,135.7324,120.5801" style="stroke:#181818;stroke-width:1;stroke-linejoin:miter;stroke-miterlimit:10;"/><line style="stroke:#181818;stroke-width:1;" x1="493.876" x2="493.876" y1="494.3848" y2="529.3848"/><polygon fill="#181818" points="489.876,519.3848,493.876,529.3848,497.876,519.3848,493.876,523.3848" style="stroke:#181818;stroke-width:1;stroke-linejoin:miter;stroke-miterlimit:10;"/><line style="stroke:#181818;stroke-width:1;" x1="335.6128" x2="318.1494" y1="436.4238" y2="436.4238"/><line style="stroke:#181818;stroke-width:1;" x1="318.1494" x2="318.1494" y1="436.4238" y2="458.4238"/><polygon fill="#181818" points="314.1494,448.4238,318.1494,458.4238,322.1494,448.4238,318.1494,452.4238" style="stroke:#181818;stroke-width:1;stroke-linejoin:miter;stroke-miterlimit:10;"/><line style="stroke:#181818;stroke-width:1;" x1="476.4126" x2="493.876" y1="436.4238" y2="436.4238"/><line style="stroke:#181818;stroke-width:1;" x1="493.876" x2="493.876" y1="436.4238" y2="458.4238"/><polygon fill="#181818" points="489.876,448.4238,493.876,458.4238,497.876,448.4238,493.876,452.4238" style="stroke:#181818;stroke-width:1;stroke-linejoin:miter;stroke-miterlimit:10;"/><line style="stroke:#181818;stroke-width:1;" x1="318.1494" x2="318.1494" y1="494.3848" y2="589.3457"/><line style="stroke:#181818;stroke-width:1;" x1="318.1494" x2="565.0784" y1="589.3457" y2="589.3457"/><polygon fill="#181818" points="555.0784,585.3457,565.0784,589.3457,555.0784,593.3457,559.0784,589.3457" style="stroke:#181818;stroke-width:1;stroke-linejoin:miter;stroke-miterlimit:10;"/><line style="stroke:#181818;stroke-width:1;" x1="827.6855" x2="827.6855" y1="439.3848" y2="474.3848"/><polygon fill="#181818" points="823.6855,464.3848,827.6855,474.3848,831.6855,464.3848,827.6855,468.3848" style="stroke:#181818;stroke-width:1;stroke-linejoin:miter;stroke-miterlimit:10;"/><line style="stroke:#181818;stroke-width:1;" x1="827.6855" x2="827.6855" y1="510.3457" y2="545.3457"/><polygon fill="#181818" points="823.6855,535.3457,827.6855,545.3457,831.6855,535.3457,827.6855,539.3457" style="stroke:#181818;stroke-width:1;stroke-linejoin:miter;stroke-miterlimit:10;"/><line style="stroke:#181818;stroke-width:1;" x1="683.5449" x2="668.6025" y1="381.4238" y2="381.4238"/><line style="stroke:#181818;stroke-width:1;" x1="668.6025" x2="668.6025" y1="381.4238" y2="403.4238"/><polygon fill="#181818" points="664.6025,393.4238,668.6025,403.4238,672.6025,393.4238,668.6025,397.4238" style="stroke:#181818;stroke-width:1;stroke-linejoin:miter;stroke-miterlimit:10;"/><line style="stroke:#181818;stroke-width:1;" x1="812.7432" x2="827.6855" y1="381.4238" y2="381.4238"/><line style="stroke:#181818;stroke-width:1;" x1="827.6855" x2="827.6855" y1="381.4238" y2="403.4238"/><polygon fill="#181818" points="823.6855,393.4238,827.6855,403.4238,831.6855,393.4238,827.6855,397.4238" style="stroke:#181818;stroke-width:1;stroke-linejoin:miter;stroke-miterlimit:10;"/><line style="stroke:#181818;stroke-width:1;" x1="668.6025" x2="668.6025" y1="439.3848" y2="589.3457"/><line style="stroke:#181818;stroke-width:1;" x1="668.6025" x2="589.0784" y1="589.3457" y2="589.3457"/><polygon fill="#181818" points="599.0784,585.3457,589.0784,589.3457,599.0784,593.3457,595.0784,589.3457" style="stroke:#181818;stroke-width:1;stroke-linejoin:miter;stroke-miterlimit:10;"/><line style="stroke:#181818;stroke-width:1;" x1="748.144" x2="748.144" y1="334.4238" y2="369.4238"/><polygon fill="#181818" points="744.144,359.4238,748.144,369.4238,752.144,359.4238,748.144,363.4238" style="stroke:#181818;stroke-width:1;stroke-linejoin:miter;stroke-miterlimit:10;"/><line style="stroke:#181818;stroke-width:1;" x1="520.4338" x2="406.0127" y1="250.502" y2="250.502"/><line style="stroke:#181818;stroke-width:1;" x1="406.0127" x2="406.0127" y1="250.502" y2="282.502"/><polygon fill="#181818" points="402.0127,272.502,406.0127,282.502,410.0127,272.502,406.0127,276.502" style="stroke:#181818;stroke-width:1;stroke-linejoin:miter;stroke-miterlimit:10;"/><line style="stroke:#181818;stroke-width:1;" x1="633.7229" x2="748.144" y1="250.502" y2="250.502"/><line style="stroke:#181818;stroke-width:1;" x1="748.144" x2="748.144" y1="250.502" y2="282.502"/><polygon fill="#181818" points="744.144,272.502,748.144,282.502,752.144,272.502,748.144,276.502" style="stroke:#181818;stroke-width:1;stroke-linejoin:miter;stroke-miterlimit:10;"/><line style="stroke:#181818;stroke-width:1;" x1="577.0784" x2="577.0784" y1="218.502" y2="238.502"/><polygon fill="#181818" points="573.0784,228.502,577.0784,238.502,581.0784,228.502,577.0784,232.502" style="stroke:#181818;stroke-width:1;stroke-linejoin:miter;stroke-miterlimit:10;"/><line style="stroke:#181818;stroke-width:1;" x1="577.0784" x2="577.0784" y1="713.2676" y2="733.2676"/><polygon fill="#181818" points="573.0784,723.2676,577.0784,733.2676,581.0784,723.2676,577.0784,727.2676" style="stroke:#181818;stroke-width:1;stroke-linejoin:miter;stroke-miterlimit:10;"/><line style="stroke:#181818;stroke-width:1;" x1="577.0784" x2="577.0784" y1="769.2285" y2="789.2285"/><polygon fill="#181818" points="573.0784,779.2285,577.0784,789.2285,581.0784,779.2285,577.0784,783.2285" style="stroke:#181818;stroke-width:1;stroke-linejoin:miter;stroke-miterlimit:10;"/><line style="stroke:#181818;stroke-width:1;" x1="577.0784" x2="577.0784" y1="885.1504" y2="910.4658"/><polygon fill="#181818" points="573.0784,900.4658,577.0784,910.4658,581.0784,900.4658,577.0784,904.4658" style="stroke:#181818;stroke-width:1;stroke-linejoin:miter;stroke-miterlimit:10;"/><line style="stroke:#181818;stroke-width:1;" x1="524.1104" x2="460.0325" y1="873.1504" y2="873.1504"/><polygon fill="#181818" points="456.0325,974.4072,460.0325,984.4072,464.0325,974.4072,460.0325,978.4072" style="stroke:#181818;stroke-width:1;stroke-linejoin:miter;stroke-miterlimit:10;"/><line style="stroke:#181818;stroke-width:1;" x1="460.0325" x2="460.0325" y1="873.1504" y2="1090.3486"/><line style="stroke:#181818;stroke-width:1;" x1="460.0325" x2="565.0784" y1="1090.3486" y2="1090.3486"/><polygon fill="#181818" points="555.0784,1086.3486,565.0784,1090.3486,555.0784,1094.3486,559.0784,1090.3486" style="stroke:#181818;stroke-width:1;stroke-linejoin:miter;stroke-miterlimit:10;"/><line style="stroke:#181818;stroke-width:1;" x1="577.0784" x2="577.0784" y1="1058.3486" y2="1078.3486"/><polygon fill="#181818" points="573.0784,1068.3486,577.0784,1078.3486,581.0784,1068.3486,577.0784,1072.3486" style="stroke:#181818;stroke-width:1;stroke-linejoin:miter;stroke-miterlimit:10;"/><line style="stroke:#181818;stroke-width:1;" x1="577.0784" x2="577.0784" y1="841.1504" y2="861.1504"/><polygon fill="#181818" points="573.0784,851.1504,577.0784,861.1504,581.0784,851.1504,577.0784,855.1504" style="stroke:#181818;stroke-width:1;stroke-linejoin:miter;stroke-miterlimit:10;"/><line style="stroke:#181818;stroke-width:1;" x1="577.0784" x2="577.0784" y1="1102.3486" y2="1122.3486"/><polygon fill="#181818" points="573.0784,1112.3486,577.0784,1122.3486,581.0784,1112.3486,577.0784,1116.3486" style="stroke:#181818;stroke-width:1;stroke-linejoin:miter;stroke-miterlimit:10;"/><line style="stroke:#181818;stroke-width:1;" x1="577.0784" x2="577.0784" y1="1158.3096" y2="1178.3096"/><polygon fill="#181818" points="573.0784,1168.3096,577.0784,1178.3096,581.0784,1168.3096,577.0784,1172.3096" style="stroke:#181818;stroke-width:1;stroke-linejoin:miter;stroke-miterlimit:10;"/><line style="stroke:#181818;stroke-width:1;" x1="577.0784" x2="577.0784" y1="1214.2705" y2="1234.2705"/><polygon fill="#181818" points="573.0784,1224.2705,577.0784,1234.2705,581.0784,1224.2705,577.0784,1228.2705" style="stroke:#181818;stroke-width:1;stroke-linejoin:miter;stroke-miterlimit:10;"/><line style="stroke:#181818;stroke-width:1;" x1="135.7324" x2="135.7324" y1="162.541" y2="167.541"/><line style="stroke:#181818;stroke-width:1;" x1="135.7324" x2="577.0784" y1="167.541" y2="167.541"/><line style="stroke:#181818;stroke-width:1;" x1="577.0784" x2="577.0784" y1="167.541" y2="182.541"/><polygon fill="#181818" points="573.0784,172.541,577.0784,182.541,581.0784,172.541,577.0784,176.541" style="stroke:#181818;stroke-width:1;stroke-linejoin:miter;stroke-miterlimit:10;"/><line style="stroke:#181818;stroke-width:1;" x1="406.0127" x2="406.0127" y1="318.4629" y2="335.9629"/><line style="stroke:#181818;stroke-width:1;" x1="406.0127" x2="995.1143" y1="335.9629" y2="335.9629"/><line style="stroke:#181818;stroke-width:1;" x1="995.1143" x2="995.1143" y1="335.9629" y2="353.4629"/><polygon fill="#181818" points="991.1143,343.4629,995.1143,353.4629,999.1143,343.4629,995.1143,347.4629" style="stroke:#181818;stroke-width:1;stroke-linejoin:miter;stroke-miterlimit:10;"/><line style="stroke:#181818;stroke-width:1;" x1="995.1143" x2="995.1143" y1="389.4238" y2="406.9238"/><line style="stroke:#181818;stroke-width:1;" x1="995.1143" x2="406.0127" y1="406.9238" y2="406.9238"/><line style="stroke:#181818;stroke-width:1;" x1="406.0127" x2="406.0127" y1="406.9238" y2="424.4238"/><polygon fill="#181818" points="402.0127,414.4238,406.0127,424.4238,410.0127,414.4238,406.0127,418.4238" style="stroke:#181818;stroke-width:1;stroke-linejoin:miter;stroke-miterlimit:10;"/><line style="stroke:#181818;stroke-width:1;" x1="577.0784" x2="577.0784" y1="601.3457" y2="606.3457"/><line style="stroke:#181818;stroke-width:1;" x1="577.0784" x2="135.7324" y1="606.3457" y2="606.3457"/><line style="stroke:#181818;stroke-width:1;" x1="135.7324" x2="135.7324" y1="606.3457" y2="621.3457"/><polygon fill="#181818" points="131.7324,611.3457,135.7324,621.3457,139.7324,611.3457,135.7324,615.3457" style="stroke:#181818;stroke-width:1;stroke-linejoin:miter;stroke-miterlimit:10;"/><line style="stroke:#181818;stroke-width:1;" x1="135.7324" x2="135.7324" y1="657.3066" y2="662.3066"/><line style="stroke:#181818;stroke-width:1;" x1="135.7324" x2="577.0784" y1="662.3066" y2="662.3066"/><line style="stroke:#181818;stroke-width:1;" x1="577.0784" x2="577.0784" y1="662.3066" y2="677.3066"/><polygon fill="#181818" points="573.0784,667.3066,577.0784,677.3066,581.0784,667.3066,577.0784,671.3066" style="stroke:#181818;stroke-width:1;stroke-linejoin:miter;stroke-miterlimit:10;"/><line style="stroke:#181818;stroke-width:1;" x1="577.0784" x2="577.0784" y1="946.4268" y2="951.4268"/><line style="stroke:#181818;stroke-width:1;" x1="577.0784" x2="1172.1904" y1="951.4268" y2="951.4268"/><line style="stroke:#181818;stroke-width:1;" x1="1172.1904" x2="1172.1904" y1="951.4268" y2="966.4268"/><polygon fill="#181818" points="1168.1904,956.4268,1172.1904,966.4268,1176.1904,956.4268,1172.1904,960.4268" style="stroke:#181818;stroke-width:1;stroke-linejoin:miter;stroke-miterlimit:10;"/><line style="stroke:#181818;stroke-width:1;" x1="1172.1904" x2="1172.1904" y1="1002.3877" y2="1007.3877"/><line style="stroke:#181818;stroke-width:1;" x1="1172.1904" x2="577.0784" y1="1007.3877" y2="1007.3877"/><line style="stroke:#181818;stroke-width:1;" x1="577.0784" x2="577.0784" y1="1007.3877" y2="1022.3877"/><polygon fill="#181818" points="573.0784,1012.3877,577.0784,1022.3877,581.0784,1012.3877,577.0784,1016.3877" style="stroke:#181818;stroke-width:1;stroke-linejoin:miter;stroke-miterlimit:10;"/><text fill="#000000" font-family="sans-serif" font-size="18" lengthAdjust="spacing" textLength="95.0537" x="87.2056" y="77.0625">Participante</text><text fill="#000000" font-family="sans-serif" font-size="18" lengthAdjust="spacing" textLength="72.0176" x="553.2656" y="77.0625">Stacklyst</text><text fill="#000000" font-family="sans-serif" font-size="18" lengthAdjust="spacing" textLength="79.0664" x="954.5811" y="77.0625">Oponente</text><text fill="#000000" font-family="sans-serif" font-size="18" lengthAdjust="spacing" textLength="164.1006" x="1089.1401" y="77.0625">Avaliador autorizado</text><?plantuml-src ZLCzRnD14EtlLqoPI1GH4eslG9PZK8gOo8a2HIGqsHtxbjpjNFR3XCZ_XW9H8nfQ_x7Ch2_692beVDwFUVFUcxV9fPPWF3jw3MSOaZEknm2Mm6PgkOetpii6Tj2nPzC4xWXIoBHt4Xkq_DNv9IomZLIjTq0-qRgAIPRLQ1eDjmq5CEnNBX5m1l8fe4Nm21Z8OrsjpnEQc_PRJEjgDCv9RZWZX0XMs3gh_rfQkckd2qjrvHPmSCgMbV80z_OGKaCU3ePEXnN0Q1AS51-Bg3dTPef9U7H0TxqBkFcn-Swrt5f_wDbJOIqbSugoj7yfbojx106q-zYGIzfVkik7eGzuppiIqNLAO4UX-0hZoSN9vLG1IIo30oyCXcjpqHT5I810NyWLSiMiVxa2nCIz0dZh5jKMfhXOz5u87O5Wa_jTqxFfxFXazlxAgtHCMHoztmAgGYiZOuzjFUYQoZMLb847LrxGD4vkzOZ_effzqKF_UYXTPWmwqKVu_n1PVf_aIvCLQ4KQ4f8v2QBP_B9koK_YT3aagDyhVmKI1Oclr9QnrG9tHoQhTqcEACh9Ck1g2CzvlkvSZ6AKt9I0SAkDRpDwmMWuwofGpAs2nYilaf35QtaTJfG-DYd-TZsAwBJvQRmppm8pEiq3MOJvzF9a-l7pdd_hiRu7wH40S-8WWxHSKZlXJci22BSiHluk4WPZv8GCXUT1taiT5kHjB9hSeJxBhV6ZTsIQtJGrH3kfq5E80k2iMZXXRqWVpfiZ-7Ic3gn8TuIj0CBcZmX6sRklAvtl0m00?></g></svg>