<svg xmlns="http://www.w3.org/2000/svg" xmlns:xlink="http://www.w3.org/1999/xlink" contentStyleType="text/css" data-diagram-type="ACTIVITY" height="928px" preserveAspectRatio="none" style="width:1077px;height:928px;background:#FFFFFF;" version="1.1" viewBox="0 0 1077 928" width="1077px" zoomAndPan="magnify"><?plantuml 1.2026.4?><defs/><g><g class="title" data-source-line="1"><text fill="#000000" font-family="sans-serif" font-size="14" font-weight="700" lengthAdjust="spacing" textLength="273.0752" x="400.9626" y="35.1074">AN05 Publicar e interagir na comunidade</text></g><rect fill="none" height="23.9414" style="stroke:none;stroke-width:1;" width="1030.0005" x="20" y="57.6387"/><ellipse cx="85.3623" cy="96.5801" fill="#222222" rx="10" ry="10" style="stroke:#222222;stroke-width:1;"/><rect fill="#F1F1F1" height="35.9609" rx="12.5" ry="12.5" style="stroke:#181818;stroke-width:0.5;" width="118.7246" x="26" y="126.5801"/><text fill="#000000" font-family="sans-serif" font-size="12" lengthAdjust="spacing" textLength="98.7246" x="36" y="149.5293">Redigir publica&#231;&#227;o</text><line style="stroke:#000000;stroke-width:1.5;" x1="20" x2="20" y1="57.6387" y2="907.0244"/><rect fill="#F1F1F1" height="35.9609" rx="12.5" ry="12.5" style="stroke:#181818;stroke-width:0.5;" width="175.4316" x="291.1123" y="182.541"/><text fill="#000000" font-family="sans-serif" font-size="12" lengthAdjust="spacing" textLength="155.4316" x="301.1123" y="205.4902">Autenticar e validar conte&#250;do</text><rect fill="#F1F1F1" height="35.9609" rx="12.5" ry="12.5" style="stroke:#181818;stroke-width:0.5;" width="89.3516" x="334.1523" y="287.8174"/><text fill="#000000" font-family="sans-serif" font-size="12" lengthAdjust="spacing" textLength="69.3516" x="344.1523" y="310.7666">Informar erro</text><ellipse cx="378.8281" cy="362.2979" fill="none" rx="11" ry="11" style="stroke:#222222;stroke-width:1;"/><ellipse cx="378.8281" cy="362.2979" fill="#222222" rx="6" ry="6" style="stroke:#222222;stroke-width:1;"/><polygon fill="#F1F1F1" points="336.0178,238.502,421.6384,238.502,433.6384,250.502,421.6384,262.502,336.0178,262.502,324.0178,250.502,336.0178,238.502" style="stroke:#181818;stroke-width:0.5;stroke-linejoin:miter;stroke-miterlimit:10;"/><text fill="#000000" font-family="sans-serif" font-size="11" lengthAdjust="spacing" textLength="18.353" x="382.8281" y="274.3721">n&#227;o</text><text fill="#000000" font-family="sans-serif" font-size="11" lengthAdjust="spacing" textLength="85.6206" x="336.0178" y="255.0566">Conte&#250;do v&#225;lido?</text><rect fill="#F1F1F1" height="35.9609" rx="12.5" ry="12.5" style="stroke:#181818;stroke-width:0.5;" width="124.0449" x="316.8057" y="415.2979"/><text fill="#000000" font-family="sans-serif" font-size="12" lengthAdjust="spacing" textLength="104.0449" x="326.8057" y="438.2471">Persistir publica&#231;&#227;o</text><rect fill="#F1F1F1" height="35.9609" rx="12.5" ry="12.5" style="stroke:#181818;stroke-width:0.5;" width="164.7383" x="296.459" y="583.1807"/><text fill="#000000" font-family="sans-serif" font-size="12" lengthAdjust="spacing" textLength="144.7383" x="306.459" y="606.1299">Verificar alvo e autoriza&#231;&#227;o</text><polygon fill="#F1F1F1" points="352.5313,639.1416,405.125,639.1416,417.125,651.1416,405.125,663.1416,352.5313,663.1416,340.5313,651.1416,352.5313,639.1416" style="stroke:#181818;stroke-width:0.5;stroke-linejoin:miter;stroke-miterlimit:10;"/><text fill="#000000" font-family="sans-serif" font-size="11" lengthAdjust="spacing" textLength="52.5938" x="352.5313" y="655.6963">Den&#250;ncia?</text><text fill="#000000" font-family="sans-serif" font-size="11" lengthAdjust="spacing" textLength="17.1069" x="323.4243" y="648.3809">sim</text><text fill="#000000" font-family="sans-serif" font-size="11" lengthAdjust="spacing" textLength="18.353" x="417.125" y="648.3809">n&#227;o</text><rect fill="#F1F1F1" height="35.9609" rx="12.5" ry="12.5" style="stroke:#181818;stroke-width:0.5;" width="176.7441" x="154.7246" y="683.1416"/><text fill="#000000" font-family="sans-serif" font-size="12" lengthAdjust="spacing" textLength="156.7441" x="164.7246" y="706.0908">Registrar Report para an&#225;lise</text><rect fill="#F1F1F1" height="35.9609" rx="12.5" ry="12.5" style="stroke:#181818;stroke-width:0.5;" width="160.748" x="162.7227" y="795.0635"/><text fill="#000000" font-family="sans-serif" font-size="12" lengthAdjust="spacing" textLength="140.748" x="172.7227" y="818.0127">Aplicar decis&#227;o autorizada</text><rect fill="#F1F1F1" height="35.9609" rx="12.5" ry="12.5" style="stroke:#181818;stroke-width:0.5;" width="244.7715" x="392.1738" y="683.1416"/><text fill="#000000" font-family="sans-serif" font-size="12" lengthAdjust="spacing" textLength="224.7715" x="402.1738" y="706.0908">Persistir resposta, rea&#231;&#227;o, voto ou favorito</text><rect fill="#F1F1F1" height="35.9609" rx="12.5" ry="12.5" style="stroke:#181818;stroke-width:0.5;" width="195.4297" x="416.8447" y="739.1025"/><text fill="#000000" font-family="sans-serif" font-size="12" lengthAdjust="spacing" textLength="175.4297" x="426.8447" y="762.0518">Criar notifica&#231;&#227;o quando prevista</text><polygon fill="#F1F1F1" points="378.8281,841.0244,390.8281,853.0244,378.8281,865.0244,366.8281,853.0244,378.8281,841.0244" style="stroke:#181818;stroke-width:0.5;stroke-linejoin:miter;stroke-miterlimit:10;"/><ellipse cx="378.8281" cy="896.0244" fill="none" rx="11" ry="11" style="stroke:#222222;stroke-width:1;"/><ellipse cx="378.8281" cy="896.0244" fill="#222222" rx="6" ry="6" style="stroke:#222222;stroke-width:1;"/><line style="stroke:#000000;stroke-width:1.5;" x1="148.7246" x2="148.7246" y1="57.6387" y2="907.0244"/><rect fill="#F1F1F1" height="35.9609" rx="12.5" ry="12.5" style="stroke:#181818;stroke-width:0.5;" width="98.0469" x="662.6221" y="471.2588"/><text fill="#000000" font-family="sans-serif" font-size="12" lengthAdjust="spacing" textLength="78.0469" x="672.6221" y="494.208">Consultar feed</text><rect fill="#F1F1F1" height="35.9609" rx="12.5" ry="12.5" style="stroke:#181818;stroke-width:0.5;" width="129.4004" x="646.9453" y="527.2197"/><text fill="#000000" font-family="sans-serif" font-size="12" lengthAdjust="spacing" textLength="109.4004" x="656.9453" y="550.1689">Selecionar intera&#231;&#227;o</text><line style="stroke:#000000;stroke-width:1.5;" x1="640.9453" x2="640.9453" y1="57.6387" y2="907.0244"/><rect fill="#F1F1F1" height="35.9609" rx="12.5" ry="12.5" style="stroke:#181818;stroke-width:0.5;" width="258.1543" x="786.3457" y="739.1025"/><text fill="#000000" font-family="sans-serif" font-size="12" lengthAdjust="spacing" textLength="238.1543" x="796.3457" y="762.0518">Consultar den&#250;ncia e decidir a&#231;&#227;o suportada</text><line style="stroke:#000000;stroke-width:1.5;" x1="780.3457" x2="780.3457" y1="57.6387" y2="907.0244"/><line style="stroke:#000000;stroke-width:1.5;" x1="1048.5" x2="1048.5" y1="57.6387" y2="907.0244"/><line style="stroke:#181818;stroke-width:1;" x1="85.3623" x2="85.3623" y1="106.5801" y2="126.5801"/><polygon fill="#181818" points="81.3623,116.5801,85.3623,126.5801,89.3623,116.5801,85.3623,120.5801" style="stroke:#181818;stroke-width:1;stroke-linejoin:miter;stroke-miterlimit:10;"/><line style="stroke:#181818;stroke-width:1;" x1="378.8281" x2="378.8281" y1="323.7783" y2="351.2979"/><polygon fill="#181818" points="374.8281,341.2979,378.8281,351.2979,382.8281,341.2979,378.8281,345.2979" style="stroke:#181818;stroke-width:1;stroke-linejoin:miter;stroke-miterlimit:10;"/><line style="stroke:#181818;stroke-width:1;" x1="378.8281" x2="378.8281" y1="262.502" y2="287.8174"/><polygon fill="#181818" points="374.8281,277.8174,378.8281,287.8174,382.8281,277.8174,378.8281,281.8174" style="stroke:#181818;stroke-width:1;stroke-linejoin:miter;stroke-miterlimit:10;"/><line style="stroke:#181818;stroke-width:1;" x1="433.6384" x2="445.6384" y1="250.502" y2="250.502"/><polygon fill="#181818" points="441.6384,321.2979,445.6384,331.2979,449.6384,321.2979,445.6384,325.2979" style="stroke:#181818;stroke-width:1;stroke-linejoin:miter;stroke-miterlimit:10;"/><line style="stroke:#181818;stroke-width:1;" x1="445.6384" x2="445.6384" y1="250.502" y2="395.2979"/><line style="stroke:#181818;stroke-width:1;" x1="445.6384" x2="378.8281" y1="395.2979" y2="395.2979"/><line style="stroke:#181818;stroke-width:1;" x1="378.8281" x2="378.8281" y1="395.2979" y2="415.2979"/><polygon fill="#181818" points="374.8281,405.2979,378.8281,415.2979,382.8281,405.2979,378.8281,409.2979" style="stroke:#181818;stroke-width:1;stroke-linejoin:miter;stroke-miterlimit:10;"/><line style="stroke:#181818;stroke-width:1;" x1="378.8281" x2="378.8281" y1="218.502" y2="238.502"/><polygon fill="#181818" points="374.8281,228.502,378.8281,238.502,382.8281,228.502,378.8281,232.502" style="stroke:#181818;stroke-width:1;stroke-linejoin:miter;stroke-miterlimit:10;"/><line style="stroke:#181818;stroke-width:1;" x1="514.5596" x2="514.5596" y1="719.1025" y2="739.1025"/><polygon fill="#181818" points="510.5596,729.1025,514.5596,739.1025,518.5596,729.1025,514.5596,733.1025" style="stroke:#181818;stroke-width:1;stroke-linejoin:miter;stroke-miterlimit:10;"/><line style="stroke:#181818;stroke-width:1;" x1="340.5313" x2="243.0967" y1="651.1416" y2="651.1416"/><line style="stroke:#181818;stroke-width:1;" x1="243.0967" x2="243.0967" y1="651.1416" y2="683.1416"/><polygon fill="#181818" points="239.0967,673.1416,243.0967,683.1416,247.0967,673.1416,243.0967,677.1416" style="stroke:#181818;stroke-width:1;stroke-linejoin:miter;stroke-miterlimit:10;"/><line style="stroke:#181818;stroke-width:1;" x1="417.125" x2="514.5596" y1="651.1416" y2="651.1416"/><line style="stroke:#181818;stroke-width:1;" x1="514.5596" x2="514.5596" y1="651.1416" y2="683.1416"/><polygon fill="#181818" points="510.5596,673.1416,514.5596,683.1416,518.5596,673.1416,514.5596,677.1416" style="stroke:#181818;stroke-width:1;stroke-linejoin:miter;stroke-miterlimit:10;"/><line style="stroke:#181818;stroke-width:1;" x1="243.0967" x2="243.0967" y1="831.0244" y2="853.0244"/><line style="stroke:#181818;stroke-width:1;" x1="243.0967" x2="366.8281" y1="853.0244" y2="853.0244"/><polygon fill="#181818" points="356.8281,849.0244,366.8281,853.0244,356.8281,857.0244,360.8281,853.0244" style="stroke:#181818;stroke-width:1;stroke-linejoin:miter;stroke-miterlimit:10;"/><line style="stroke:#181818;stroke-width:1;" x1="514.5596" x2="514.5596" y1="775.0635" y2="853.0244"/><line style="stroke:#181818;stroke-width:1;" x1="514.5596" x2="390.8281" y1="853.0244" y2="853.0244"/><polygon fill="#181818" points="400.8281,849.0244,390.8281,853.0244,400.8281,857.0244,396.8281,853.0244" style="stroke:#181818;stroke-width:1;stroke-linejoin:miter;stroke-miterlimit:10;"/><line style="stroke:#181818;stroke-width:1;" x1="378.8281" x2="378.8281" y1="619.1416" y2="639.1416"/><polygon fill="#181818" points="374.8281,629.1416,378.8281,639.1416,382.8281,629.1416,378.8281,633.1416" style="stroke:#181818;stroke-width:1;stroke-linejoin:miter;stroke-miterlimit:10;"/><line style="stroke:#181818;stroke-width:1;" x1="378.8281" x2="378.8281" y1="865.0244" y2="885.0244"/><polygon fill="#181818" points="374.8281,875.0244,378.8281,885.0244,382.8281,875.0244,378.8281,879.0244" style="stroke:#181818;stroke-width:1;stroke-linejoin:miter;stroke-miterlimit:10;"/><line style="stroke:#181818;stroke-width:1;" x1="711.6455" x2="711.6455" y1="507.2197" y2="527.2197"/><polygon fill="#181818" points="707.6455,517.2197,711.6455,527.2197,715.6455,517.2197,711.6455,521.2197" style="stroke:#181818;stroke-width:1;stroke-linejoin:miter;stroke-miterlimit:10;"/><line style="stroke:#181818;stroke-width:1;" x1="85.3623" x2="85.3623" y1="162.541" y2="167.541"/><line style="stroke:#181818;stroke-width:1;" x1="85.3623" x2="378.8281" y1="167.541" y2="167.541"/><line style="stroke:#181818;stroke-width:1;" x1="378.8281" x2="378.8281" y1="167.541" y2="182.541"/><polygon fill="#181818" points="374.8281,172.541,378.8281,182.541,382.8281,172.541,378.8281,176.541" style="stroke:#181818;stroke-width:1;stroke-linejoin:miter;stroke-miterlimit:10;"/><line style="stroke:#181818;stroke-width:1;" x1="378.8281" x2="378.8281" y1="451.2588" y2="456.2588"/><line style="stroke:#181818;stroke-width:1;" x1="378.8281" x2="711.6455" y1="456.2588" y2="456.2588"/><line style="stroke:#181818;stroke-width:1;" x1="711.6455" x2="711.6455" y1="456.2588" y2="471.2588"/><polygon fill="#181818" points="707.6455,461.2588,711.6455,471.2588,715.6455,461.2588,711.6455,465.2588" style="stroke:#181818;stroke-width:1;stroke-linejoin:miter;stroke-miterlimit:10;"/><line style="stroke:#181818;stroke-width:1;" x1="711.6455" x2="711.6455" y1="563.1807" y2="568.1807"/><line style="stroke:#181818;stroke-width:1;" x1="711.6455" x2="378.8281" y1="568.1807" y2="568.1807"/><line style="stroke:#181818;stroke-width:1;" x1="378.8281" x2="378.8281" y1="568.1807" y2="583.1807"/><polygon fill="#181818" points="374.8281,573.1807,378.8281,583.1807,382.8281,573.1807,378.8281,577.1807" style="stroke:#181818;stroke-width:1;stroke-linejoin:miter;stroke-miterlimit:10;"/><line style="stroke:#181818;stroke-width:1;" x1="243.0967" x2="243.0967" y1="719.1025" y2="724.1025"/><line style="stroke:#181818;stroke-width:1;" x1="243.0967" x2="915.4229" y1="724.1025" y2="724.1025"/><line style="stroke:#181818;stroke-width:1;" x1="915.4229" x2="915.4229" y1="724.1025" y2="739.1025"/><polygon fill="#181818" points="911.4229,729.1025,915.4229,739.1025,919.4229,729.1025,915.4229,733.1025" style="stroke:#181818;stroke-width:1;stroke-linejoin:miter;stroke-miterlimit:10;"/><line style="stroke:#181818;stroke-width:1;" x1="915.4229" x2="915.4229" y1="775.0635" y2="780.0635"/><line style="stroke:#181818;stroke-width:1;" x1="915.4229" x2="243.0967" y1="780.0635" y2="780.0635"/><line style="stroke:#181818;stroke-width:1;" x1="243.0967" x2="243.0967" y1="780.0635" y2="795.0635"/><polygon fill="#181818" points="239.0967,785.0635,243.0967,795.0635,247.0967,785.0635,243.0967,789.0635" style="stroke:#181818;stroke-width:1;stroke-linejoin:miter;stroke-miterlimit:10;"/><text fill="#000000" font-family="sans-serif" font-size="18" lengthAdjust="spacing" textLength="43.0225" x="62.8511" y="77.0625">Autor</text><text fill="#000000" font-family="sans-serif" font-size="18" lengthAdjust="spacing" textLength="72.0176" x="358.8262" y="77.0625">Stacklyst</text><text fill="#000000" font-family="sans-serif" font-size="18" lengthAdjust="spacing" textLength="45.0264" x="688.1323" y="77.0625">Leitor</text><text fill="#000000" font-family="sans-serif" font-size="18" lengthAdjust="spacing" textLength="111.041" x="858.9023" y="77.0625">Administrador</text><?plantuml-src RP6zJkHG38Nx-nGkGQBOPfjGe14qI2iq6gJjJQupOv7OMT-R851U1csnxq2R5yCtsO6HeCkFVSxdSpBdbc1pz-CdR8U7bciq8639PBXd0q6ejHk48qOAwP6bHyCEEXMj3wOTGRRXz4ywODGdbZqqs2OAqsR8QbD86Is7QaUHYt2_kit_vhzw6QRxZFLZ-vpo52fV8Cd_KKPitTkSmfdcj-Z3tC3PzV4LnldL9_Jg7FA11Cx41Sy3G7KhZLfNHCny2o1bxGD9v2PKMxB4ANy5-KMyu5Rka8RMeQ4XYfUXkgUMQbRnBsi-tx7_9kDcGSTsLEV7SZs_78SB-mt9_2OrumTpucv1tj7UeSotTzIhPIYH0aevCL6vOTh4ZcKPYWNJbpv1ur7OVQEpHZzlDOOq53sCk8YS4Bl0fbzxBokf31-PopHvXoUXVkPcb7hrKY_yQJMvW56pWWxU_EW2UKczkZPsST6y1BFY_1bGlBlUQ7IrOhFKKXfw1m00?></g></svg>