<svg xmlns="http://www.w3.org/2000/svg" xmlns:xlink="http://www.w3.org/1999/xlink" contentStyleType="text/css" data-diagram-type="ACTIVITY" height="1218px" preserveAspectRatio="none" style="width:1106px;height:1218px;background:#FFFFFF;" version="1.1" viewBox="0 0 1106 1218" width="1106px" zoomAndPan="magnify"><?plantuml 1.2026.4?><defs/><g><g class="title" data-source-line="1"><text fill="#000000" font-family="sans-serif" font-size="14" font-weight="700" lengthAdjust="spacing" textLength="285.5576" x="409.6863" y="35.1074">AN07 Credenciamento e avalia&#231;&#227;o humana</text></g><rect fill="none" height="23.9414" style="stroke:none;stroke-width:1;" width="1059.9302" x="20" y="57.6387"/><ellipse cx="111.3779" cy="96.5801" fill="#222222" rx="10" ry="10" style="stroke:#222222;stroke-width:1;"/><rect fill="#F1F1F1" height="35.9609" rx="12.5" ry="12.5" style="stroke:#181818;stroke-width:0.5;" width="170.7559" x="26" y="126.5801"/><text fill="#000000" font-family="sans-serif" font-size="12" lengthAdjust="spacing" textLength="150.7559" x="36" y="149.5293">Solicitar fun&#231;&#227;o de avaliador</text><line style="stroke:#000000;stroke-width:1.5;" x1="20" x2="20" y1="57.6387" y2="1197.7031"/><rect fill="#F1F1F1" height="35.9609" rx="12.5" ry="12.5" style="stroke:#181818;stroke-width:0.5;" width="238.7891" x="344.9688" y="182.541"/><text fill="#000000" font-family="sans-serif" font-size="12" lengthAdjust="spacing" textLength="218.7891" x="354.9688" y="205.4902">Verificar crit&#233;rios e candidatura pendente</text><rect fill="#F1F1F1" height="35.9609" rx="12.5" ry="12.5" style="stroke:#181818;stroke-width:0.5;" width="136.7129" x="396.0068" y="287.8174"/><text fill="#000000" font-family="sans-serif" font-size="12" lengthAdjust="spacing" textLength="116.7129" x="406.0068" y="310.7666">Informar impedimento</text><ellipse cx="464.3633" cy="362.2979" fill="none" rx="11" ry="11" style="stroke:#222222;stroke-width:1;"/><ellipse cx="464.3633" cy="362.2979" fill="#222222" rx="6" ry="6" style="stroke:#222222;stroke-width:1;"/><polygon fill="#F1F1F1" points="441.7375,238.502,486.989,238.502,498.989,250.502,486.989,262.502,441.7375,262.502,429.7375,250.502,441.7375,238.502" style="stroke:#181818;stroke-width:0.5;stroke-linejoin:miter;stroke-miterlimit:10;"/><text fill="#000000" font-family="sans-serif" font-size="11" lengthAdjust="spacing" textLength="18.353" x="468.3633" y="274.3721">n&#227;o</text><text fill="#000000" font-family="sans-serif" font-size="11" lengthAdjust="spacing" textLength="45.2515" x="441.7375" y="255.0566">Eleg&#237;vel?</text><rect fill="#F1F1F1" height="35.9609" rx="12.5" ry="12.5" style="stroke:#181818;stroke-width:0.5;" width="134.7266" x="397" y="415.2979"/><text fill="#000000" font-family="sans-serif" font-size="12" lengthAdjust="spacing" textLength="114.7266" x="407" y="438.2471">Registrar candidatura</text><rect fill="#F1F1F1" height="35.9609" rx="12.5" ry="12.5" style="stroke:#181818;stroke-width:0.5;" width="114.0371" x="407.3447" y="576.5352"/><text fill="#000000" font-family="sans-serif" font-size="12" lengthAdjust="spacing" textLength="94.0371" x="417.3447" y="599.4844">Registrar rejei&#231;&#227;o</text><ellipse cx="464.3633" cy="651.0156" fill="none" rx="11" ry="11" style="stroke:#222222;stroke-width:1;"/><ellipse cx="464.3633" cy="651.0156" fill="#222222" rx="6" ry="6" style="stroke:#222222;stroke-width:1;"/><polygon fill="#F1F1F1" points="437.7603,527.2197,490.9663,527.2197,502.9663,539.2197,490.9663,551.2197,437.7603,551.2197,425.7603,539.2197,437.7603,527.2197" style="stroke:#181818;stroke-width:0.5;stroke-linejoin:miter;stroke-miterlimit:10;"/><text fill="#000000" font-family="sans-serif" font-size="11" lengthAdjust="spacing" textLength="18.353" x="468.3633" y="563.0898">n&#227;o</text><text fill="#000000" font-family="sans-serif" font-size="11" lengthAdjust="spacing" textLength="53.2061" x="437.7603" y="543.7744">Aprovada?</text><rect fill="#F1F1F1" height="35.9609" rx="12.5" ry="12.5" style="stroke:#181818;stroke-width:0.5;" width="166.7246" x="381.001" y="704.0156"/><text fill="#000000" font-family="sans-serif" font-size="12" lengthAdjust="spacing" textLength="146.7246" x="391.001" y="726.9648">Atribuir papel EVALUATOR</text><rect fill="#F1F1F1" height="35.9609" rx="12.5" ry="12.5" style="stroke:#181818;stroke-width:0.5;" width="178.0918" x="375.3174" y="871.8984"/><text fill="#000000" font-family="sans-serif" font-size="12" lengthAdjust="spacing" textLength="158.0918" x="385.3174" y="894.8477">Validar papel e impedimentos</text><rect fill="#F1F1F1" height="51.9219" rx="12.5" ry="12.5" style="stroke:#181818;stroke-width:0.5;" width="208.7715" x="359.9775" y="927.8594"/><text fill="#000000" font-family="sans-serif" font-size="12" lengthAdjust="spacing" textLength="188.7715" x="369.9775" y="950.8086">Reivindicar fechamento condicional</text><text fill="#000000" font-family="sans-serif" font-size="12" lengthAdjust="spacing" textLength="106.7402" x="369.9775" y="966.7695">dentro da transa&#231;&#227;o</text><polygon fill="#F1F1F1" points="407.4807,999.7813,521.2458,999.7813,533.2458,1011.7813,521.2458,1023.7813,407.4807,1023.7813,395.4807,1011.7813,407.4807,999.7813" style="stroke:#181818;stroke-width:0.5;stroke-linejoin:miter;stroke-miterlimit:10;"/><text fill="#000000" font-family="sans-serif" font-size="11" lengthAdjust="spacing" textLength="113.7651" x="407.4807" y="1016.3359">Duelo ainda pendente?</text><text fill="#000000" font-family="sans-serif" font-size="11" lengthAdjust="spacing" textLength="17.1069" x="378.3738" y="1009.0205">sim</text><text fill="#000000" font-family="sans-serif" font-size="11" lengthAdjust="spacing" textLength="18.353" x="533.2458" y="1009.0205">n&#227;o</text><rect fill="#F1F1F1" height="35.9609" rx="12.5" ry="12.5" style="stroke:#181818;stroke-width:0.5;" width="232.1211" x="226.4199" y="1033.7813"/><text fill="#000000" font-family="sans-serif" font-size="12" lengthAdjust="spacing" textLength="212.1211" x="236.4199" y="1056.7305">Registrar DuelEvaluation e fechar duelo</text><rect fill="#F1F1F1" height="35.9609" rx="12.5" ry="12.5" style="stroke:#181818;stroke-width:0.5;" width="271.4492" x="206.7559" y="1089.7422"/><text fill="#000000" font-family="sans-serif" font-size="12" lengthAdjust="spacing" textLength="251.4492" x="216.7559" y="1112.6914">Processar recompensa e notifica&#231;&#245;es previstas</text><rect fill="#F1F1F1" height="35.9609" rx="12.5" ry="12.5" style="stroke:#181818;stroke-width:0.5;" width="176.082" x="498.2051" y="1033.7813"/><text fill="#000000" font-family="sans-serif" font-size="12" lengthAdjust="spacing" textLength="156.082" x="508.2051" y="1056.7305">Recusar decis&#227;o concorrente</text><polygon fill="#F1F1F1" points="464.3633,1131.7031,476.3633,1143.7031,464.3633,1155.7031,452.3633,1143.7031,464.3633,1131.7031" style="stroke:#181818;stroke-width:0.5;stroke-linejoin:miter;stroke-miterlimit:10;"/><ellipse cx="464.3633" cy="1186.7031" fill="none" rx="11" ry="11" style="stroke:#222222;stroke-width:1;"/><ellipse cx="464.3633" cy="1186.7031" fill="#222222" rx="6" ry="6" style="stroke:#222222;stroke-width:1;"/><line style="stroke:#000000;stroke-width:1.5;" x1="200.7559" x2="200.7559" y1="57.6387" y2="1197.7031"/><rect fill="#F1F1F1" height="35.9609" rx="12.5" ry="12.5" style="stroke:#181818;stroke-width:0.5;" width="178.0918" x="684.2871" y="471.2588"/><text fill="#000000" font-family="sans-serif" font-size="12" lengthAdjust="spacing" textLength="158.0918" x="694.2871" y="494.208">Analisar e decidir candidatura</text><line style="stroke:#000000;stroke-width:1.5;" x1="678.2871" x2="678.2871" y1="57.6387" y2="1197.7031"/><rect fill="#F1F1F1" height="35.9609" rx="12.5" ry="12.5" style="stroke:#181818;stroke-width:0.5;" width="202.0508" x="872.3789" y="759.9766"/><text fill="#000000" font-family="sans-serif" font-size="12" lengthAdjust="spacing" textLength="182.0508" x="882.3789" y="782.9258">Consultar fila REVIEW_PENDING</text><rect fill="#F1F1F1" height="35.9609" rx="12.5" ry="12.5" style="stroke:#181818;stroke-width:0.5;" width="199.4434" x="873.6826" y="815.9375"/><text fill="#000000" font-family="sans-serif" font-size="12" lengthAdjust="spacing" textLength="179.4434" x="883.6826" y="838.8867">Selecionar duelo e enviar parecer</text><line style="stroke:#000000;stroke-width:1.5;" x1="866.3789" x2="866.3789" y1="57.6387" y2="1197.7031"/><line style="stroke:#000000;stroke-width:1.5;" x1="1078.4297" x2="1078.4297" y1="57.6387" y2="1197.7031"/><line style="stroke:#181818;stroke-width:1;" x1="111.3779" x2="111.3779" y1="106.5801" y2="126.5801"/><polygon fill="#181818" points="107.3779,116.5801,111.3779,126.5801,115.3779,116.5801,111.3779,120.5801" style="stroke:#181818;stroke-width:1;stroke-linejoin:miter;stroke-miterlimit:10;"/><line style="stroke:#181818;stroke-width:1;" x1="464.3633" x2="464.3633" y1="323.7783" y2="351.2979"/><polygon fill="#181818" points="460.3633,341.2979,464.3633,351.2979,468.3633,341.2979,464.3633,345.2979" style="stroke:#181818;stroke-width:1;stroke-linejoin:miter;stroke-miterlimit:10;"/><line style="stroke:#181818;stroke-width:1;" x1="464.3633" x2="464.3633" y1="262.502" y2="287.8174"/><polygon fill="#181818" points="460.3633,277.8174,464.3633,287.8174,468.3633,277.8174,464.3633,281.8174" style="stroke:#181818;stroke-width:1;stroke-linejoin:miter;stroke-miterlimit:10;"/><line style="stroke:#181818;stroke-width:1;" x1="498.989" x2="542.7197" y1="250.502" y2="250.502"/><polygon fill="#181818" points="538.7197,321.2979,542.7197,331.2979,546.7197,321.2979,542.7197,325.2979" style="stroke:#181818;stroke-width:1;stroke-linejoin:miter;stroke-miterlimit:10;"/><line style="stroke:#181818;stroke-width:1;" x1="542.7197" x2="542.7197" y1="250.502" y2="395.2979"/><line style="stroke:#181818;stroke-width:1;" x1="542.7197" x2="464.3633" y1="395.2979" y2="395.2979"/><line style="stroke:#181818;stroke-width:1;" x1="464.3633" x2="464.3633" y1="395.2979" y2="415.2979"/><polygon fill="#181818" points="460.3633,405.2979,464.3633,415.2979,468.3633,405.2979,464.3633,409.2979" style="stroke:#181818;stroke-width:1;stroke-linejoin:miter;stroke-miterlimit:10;"/><line style="stroke:#181818;stroke-width:1;" x1="464.3633" x2="464.3633" y1="218.502" y2="238.502"/><polygon fill="#181818" points="460.3633,228.502,464.3633,238.502,468.3633,228.502,464.3633,232.502" style="stroke:#181818;stroke-width:1;stroke-linejoin:miter;stroke-miterlimit:10;"/><line style="stroke:#181818;stroke-width:1;" x1="464.3633" x2="464.3633" y1="612.4961" y2="640.0156"/><polygon fill="#181818" points="460.3633,630.0156,464.3633,640.0156,468.3633,630.0156,464.3633,634.0156" style="stroke:#181818;stroke-width:1;stroke-linejoin:miter;stroke-miterlimit:10;"/><line style="stroke:#181818;stroke-width:1;" x1="464.3633" x2="464.3633" y1="551.2197" y2="576.5352"/><polygon fill="#181818" points="460.3633,566.5352,464.3633,576.5352,468.3633,566.5352,464.3633,570.5352" style="stroke:#181818;stroke-width:1;stroke-linejoin:miter;stroke-miterlimit:10;"/><line style="stroke:#181818;stroke-width:1;" x1="502.9663" x2="531.3818" y1="539.2197" y2="539.2197"/><polygon fill="#181818" points="527.3818,610.0156,531.3818,620.0156,535.3818,610.0156,531.3818,614.0156" style="stroke:#181818;stroke-width:1;stroke-linejoin:miter;stroke-miterlimit:10;"/><line style="stroke:#181818;stroke-width:1;" x1="531.3818" x2="531.3818" y1="539.2197" y2="684.0156"/><line style="stroke:#181818;stroke-width:1;" x1="531.3818" x2="464.3633" y1="684.0156" y2="684.0156"/><line style="stroke:#181818;stroke-width:1;" x1="464.3633" x2="464.3633" y1="684.0156" y2="704.0156"/><polygon fill="#181818" points="460.3633,694.0156,464.3633,704.0156,468.3633,694.0156,464.3633,698.0156" style="stroke:#181818;stroke-width:1;stroke-linejoin:miter;stroke-miterlimit:10;"/><line style="stroke:#181818;stroke-width:1;" x1="464.3633" x2="464.3633" y1="907.8594" y2="927.8594"/><polygon fill="#181818" points="460.3633,917.8594,464.3633,927.8594,468.3633,917.8594,464.3633,921.8594" style="stroke:#181818;stroke-width:1;stroke-linejoin:miter;stroke-miterlimit:10;"/><line style="stroke:#181818;stroke-width:1;" x1="342.4805" x2="342.4805" y1="1069.7422" y2="1089.7422"/><polygon fill="#181818" points="338.4805,1079.7422,342.4805,1089.7422,346.4805,1079.7422,342.4805,1083.7422" style="stroke:#181818;stroke-width:1;stroke-linejoin:miter;stroke-miterlimit:10;"/><line style="stroke:#181818;stroke-width:1;" x1="395.4807" x2="342.4805" y1="1011.7813" y2="1011.7813"/><line style="stroke:#181818;stroke-width:1;" x1="342.4805" x2="342.4805" y1="1011.7813" y2="1033.7813"/><polygon fill="#181818" points="338.4805,1023.7813,342.4805,1033.7813,346.4805,1023.7813,342.4805,1027.7813" style="stroke:#181818;stroke-width:1;stroke-linejoin:miter;stroke-miterlimit:10;"/><line style="stroke:#181818;stroke-width:1;" x1="533.2458" x2="586.2461" y1="1011.7813" y2="1011.7813"/><line style="stroke:#181818;stroke-width:1;" x1="586.2461" x2="586.2461" y1="1011.7813" y2="1033.7813"/><polygon fill="#181818" points="582.2461,1023.7813,586.2461,1033.7813,590.2461,1023.7813,586.2461,1027.7813" style="stroke:#181818;stroke-width:1;stroke-linejoin:miter;stroke-miterlimit:10;"/><line style="stroke:#181818;stroke-width:1;" x1="342.4805" x2="342.4805" y1="1125.7031" y2="1143.7031"/><line style="stroke:#181818;stroke-width:1;" x1="342.4805" x2="452.3633" y1="1143.7031" y2="1143.7031"/><polygon fill="#181818" points="442.3633,1139.7031,452.3633,1143.7031,442.3633,1147.7031,446.3633,1143.7031" style="stroke:#181818;stroke-width:1;stroke-linejoin:miter;stroke-miterlimit:10;"/><line style="stroke:#181818;stroke-width:1;" x1="586.2461" x2="586.2461" y1="1069.7422" y2="1143.7031"/><line style="stroke:#181818;stroke-width:1;" x1="586.2461" x2="476.3633" y1="1143.7031" y2="1143.7031"/><polygon fill="#181818" points="486.3633,1139.7031,476.3633,1143.7031,486.3633,1147.7031,482.3633,1143.7031" style="stroke:#181818;stroke-width:1;stroke-linejoin:miter;stroke-miterlimit:10;"/><line style="stroke:#181818;stroke-width:1;" x1="464.3633" x2="464.3633" y1="979.7813" y2="999.7813"/><polygon fill="#181818" points="460.3633,989.7813,464.3633,999.7813,468.3633,989.7813,464.3633,993.7813" style="stroke:#181818;stroke-width:1;stroke-linejoin:miter;stroke-miterlimit:10;"/><line style="stroke:#181818;stroke-width:1;" x1="464.3633" x2="464.3633" y1="1155.7031" y2="1175.7031"/><polygon fill="#181818" points="460.3633,1165.7031,464.3633,1175.7031,468.3633,1165.7031,464.3633,1169.7031" style="stroke:#181818;stroke-width:1;stroke-linejoin:miter;stroke-miterlimit:10;"/><line style="stroke:#181818;stroke-width:1;" x1="973.4043" x2="973.4043" y1="795.9375" y2="815.9375"/><polygon fill="#181818" points="969.4043,805.9375,973.4043,815.9375,977.4043,805.9375,973.4043,809.9375" style="stroke:#181818;stroke-width:1;stroke-linejoin:miter;stroke-miterlimit:10;"/><line style="stroke:#181818;stroke-width:1;" x1="111.3779" x2="111.3779" y1="162.541" y2="167.541"/><line style="stroke:#181818;stroke-width:1;" x1="111.3779" x2="464.3633" y1="167.541" y2="167.541"/><line style="stroke:#181818;stroke-width:1;" x1="464.3633" x2="464.3633" y1="167.541" y2="182.541"/><polygon fill="#181818" points="460.3633,172.541,464.3633,182.541,468.3633,172.541,464.3633,176.541" style="stroke:#181818;stroke-width:1;stroke-linejoin:miter;stroke-miterlimit:10;"/><line style="stroke:#181818;stroke-width:1;" x1="464.3633" x2="464.3633" y1="451.2588" y2="456.2588"/><line style="stroke:#181818;stroke-width:1;" x1="464.3633" x2="773.333" y1="456.2588" y2="456.2588"/><line style="stroke:#181818;stroke-width:1;" x1="773.333" x2="773.333" y1="456.2588" y2="471.2588"/><polygon fill="#181818" points="769.333,461.2588,773.333,471.2588,777.333,461.2588,773.333,465.2588" style="stroke:#181818;stroke-width:1;stroke-linejoin:miter;stroke-miterlimit:10;"/><line style="stroke:#181818;stroke-width:1;" x1="773.333" x2="773.333" y1="507.2197" y2="512.2197"/><line style="stroke:#181818;stroke-width:1;" x1="773.333" x2="464.3633" y1="512.2197" y2="512.2197"/><line style="stroke:#181818;stroke-width:1;" x1="464.3633" x2="464.3633" y1="512.2197" y2="527.2197"/><polygon fill="#181818" points="460.3633,517.2197,464.3633,527.2197,468.3633,517.2197,464.3633,521.2197" style="stroke:#181818;stroke-width:1;stroke-linejoin:miter;stroke-miterlimit:10;"/><line style="stroke:#181818;stroke-width:1;" x1="464.3633" x2="464.3633" y1="739.9766" y2="744.9766"/><line style="stroke:#181818;stroke-width:1;" x1="464.3633" x2="973.4043" y1="744.9766" y2="744.9766"/><line style="stroke:#181818;stroke-width:1;" x1="973.4043" x2="973.4043" y1="744.9766" y2="759.9766"/><polygon fill="#181818" points="969.4043,749.9766,973.4043,759.9766,977.4043,749.9766,973.4043,753.9766" style="stroke:#181818;stroke-width:1;stroke-linejoin:miter;stroke-miterlimit:10;"/><line style="stroke:#181818;stroke-width:1;" x1="973.4043" x2="973.4043" y1="851.8984" y2="856.8984"/><line style="stroke:#181818;stroke-width:1;" x1="973.4043" x2="464.3633" y1="856.8984" y2="856.8984"/><line style="stroke:#181818;stroke-width:1;" x1="464.3633" x2="464.3633" y1="856.8984" y2="871.8984"/><polygon fill="#181818" points="460.3633,861.8984,464.3633,871.8984,468.3633,861.8984,464.3633,865.8984" style="stroke:#181818;stroke-width:1;stroke-linejoin:miter;stroke-miterlimit:10;"/><text fill="#000000" font-family="sans-serif" font-size="18" lengthAdjust="spacing" textLength="82.0635" x="69.3462" y="77.0625">Candidato</text><text fill="#000000" font-family="sans-serif" font-size="18" lengthAdjust="spacing" textLength="72.0176" x="403.5127" y="77.0625">Stacklyst</text><text fill="#000000" font-family="sans-serif" font-size="18" lengthAdjust="spacing" textLength="111.041" x="716.8125" y="77.0625">Administrador</text><text fill="#000000" font-family="sans-serif" font-size="18" lengthAdjust="spacing" textLength="75.041" x="934.8838" y="77.0625">Avaliador</text><?plantuml-src PPB1RjD048RlVeezjZTkIFQXib8BHKAXIaku8A5XTnmFNUzOisiZfBmD1yI18q-G5sFMIPgGtgBi-F-_-Vz9b3oQUlNchLa8EWoMeCUGsA212Jp1_jV-9vjkx2504Pyf323Gcvu3sqwuHvDan8kNs87ZxnIsfWKViTWj83Xoa7XNn0IIYlAHFLdItwOTmy70dVmSIrNi7XFOP_yZfbrHRb2e9QlJLYZjVmjnL3nxb1q5p811sHDM1RNcfl6utV-PqD_TcjHXC3T1BMuBOyfbQ5bwbQ9-G4VpgfK-nCH3eIBK5kKQjnIJPB-pXJBLhgSmloYZSjL1UQEEeT9RSdJzmSKI6QiUX2Tmy9hgx2Zu3MbEv9ggJa9VH_KOO41lcatz_cFzz66TmKx1ATI2Gnpz72rvCEjcism-VNbeLlVBrRjAeqUlh1nqm8teSyyO9eAiAsZnLVWgxU3aYfUvnIfdHHCfO6wdHTiTZyTo_Y_R-CzpCw8DWruAX0Z7zN8azpC2gCAvmvTu8lLNwUJnHfST8QcsqioMnqroOEM3iCKOvoGjAwlwwLpWD9-GMl_5Q0R1IIL1Dq0zqV-Qi6F-EXSQyrtg9fP53iTrg2AtyWy0?></g></svg>